<svg version="1.1" id="Layer_1" xmlns="http://www.w3.org/2000/svg" xmlns:xlink="http://www.w3.org/1999/xlink" x="0px" y="0px" width="100%" viewBox="0 0 500 195" enable-background="new 0 0 500 195" xml:space="preserve">
<path fill="#15161A" opacity="1.000000" stroke="none" d=" M92.899826,1.351885   C227.457382,1.000000 361.914764,1.014300 496.372070,0.920998   C499.883942,0.918561 501.125397,1.332696 501.114716,5.369575   C500.950256,67.516106 500.954651,129.663330 501.111633,191.809891   C501.121155,195.578552 500.137787,196.085739 496.692474,196.083710   C332.911133,195.987717 169.129700,195.989594 5.348330,196.073364   C2.019460,196.075058 0.869095,195.736176 0.879725,191.850647   C1.050202,129.537537 1.041727,67.223732 0.892688,4.910507   C0.884066,1.305836 1.852426,0.894651 5.087725,0.913823   C31.078634,1.067838 57.070862,1.000000 83.531342,1.000000   C84.370689,1.940081 83.924126,2.706330 83.223663,3.135242   C75.733536,7.721672 70.414009,14.602081 64.127800,21.005596   C60.121628,23.280281 55.924885,23.859060 52.010143,25.261213   C39.871731,29.608858 28.531483,35.542580 17.580889,42.299976   C11.987342,45.751640 9.436776,50.291557 9.538656,57.150120   C9.888212,80.682060 11.939811,103.972809 15.894130,127.209244   C20.389559,153.625366 35.736267,170.486435 59.552921,180.795502   C61.693958,181.722260 63.934013,182.428207 66.047356,183.401871   C80.833336,190.214096 95.336296,190.167694 110.408882,183.498993   C124.435104,177.293228 137.826584,170.629517 147.742218,158.457458   C153.390579,151.523743 155.939224,143.233337 158.229492,134.885208   C162.388458,119.725563 164.053986,104.165588 165.474548,88.539612   C166.459015,77.710968 165.892807,66.890625 166.442352,56.090794   C166.775269,49.548103 164.062088,45.521427 158.733490,42.231670   C145.762360,34.223576 132.286346,27.400959 117.583054,23.176342   C115.983398,22.716721 114.355614,22.326176 112.547714,21.320232   C106.340523,14.069571 99.316658,8.139392 92.899826,1.351885  z"/>
<path fill="#070813" opacity="1.000000" stroke="none" d=" M63.638275,20.431084   C69.276405,12.671309 75.348846,5.959709 83.791397,1.264392   C86.700012,1.000000 89.400032,1.000000 92.550018,1.000000   C100.128067,6.401534 107.251839,11.807407 112.058220,20.044615   C115.468666,23.613903 119.375427,25.563572 123.717537,27.087225   C135.549774,31.239183 146.569855,37.129532 157.315704,43.558834   C162.514252,46.669140 164.778320,50.910957 164.789169,57.142067   C164.824051,77.181801 162.775391,97.018097 160.356766,116.871017   C159.264542,125.836502 157.952515,134.443726 154.284439,142.919006   C148.516891,156.245193 139.420074,166.070328 127.060890,173.163132   C116.745331,179.083099 105.797852,183.479996 94.238075,186.352432   C90.096390,187.381577 86.066330,187.415375 81.919319,186.258072   C63.741280,181.185211 46.360229,174.555206 33.310123,160.110382   C23.672714,149.442993 17.845312,136.776047 16.497934,122.453636   C15.312903,109.856956 13.380411,97.332123 12.757110,84.686409   C12.282050,75.048225 11.764305,65.411652 11.361737,55.770115   C11.154065,50.796329 13.483649,47.238953 17.628086,44.606632   C28.919725,37.434795 40.633392,31.113758 53.403709,26.990528   C57.323177,25.725027 60.768478,23.974886 63.638275,20.431084  z"/>
<path fill="#7343D4" opacity="1.000000" stroke="none" d=" M63.566010,20.212116   C63.539242,24.287054 61.333881,26.188995 57.222744,27.425449   C43.443466,31.569668 30.762695,38.160583 18.631271,45.892761   C14.719496,48.386002 12.889500,51.213276 13.062120,56.044312   C13.769647,75.845253 15.526644,95.532379 17.428164,115.254349   C18.661030,128.041260 21.712952,139.745331 28.032188,150.665970   C35.171532,163.003922 46.824837,169.927795 59.010799,176.500458   C78.817322,187.183395 97.823738,186.655701 117.828690,176.450638   C135.436615,167.468369 148.535080,155.360428 155.394836,136.536041   C158.847778,127.060562 158.379120,117.187302 159.848740,107.531197   C162.480896,90.236786 162.953369,72.736069 163.476715,55.258045   C163.603226,51.033340 161.857468,48.429935 158.491486,46.268543   C146.252716,38.409718 133.444595,31.686998 119.497032,27.485363   C115.748856,26.356239 113.441315,24.619717 112.299004,20.693092   C131.442581,24.410440 148.408447,33.383045 164.425888,44.375793   C166.516541,45.810596 168.035446,47.931572 168.066315,50.639771   C168.418686,81.532257 166.694427,112.185616 157.862244,142.067352   C152.427261,160.455414 139.043030,171.404541 122.881500,179.672501   C115.782730,183.304123 108.203712,185.850037 100.623062,188.407303   C92.198517,191.249268 84.174942,191.197708 75.779030,188.373108   C65.501450,184.915451 55.458771,181.077087 46.078178,175.561768   C26.964302,164.323715 17.685770,146.941483 13.976004,125.701050   C10.010931,102.998863 8.482286,80.141052 7.830842,57.145039   C7.605699,49.197456 10.856929,44.465641 17.278568,40.571087   C31.730158,31.806576 46.773769,24.510590 63.566010,20.212116  z"/>
<path fill="#F8F8F8" opacity="1.000000" stroke="none" d=" M409.194275,110.885063   C410.018250,115.360626 407.389130,114.923859 404.790070,115.083092   C401.843109,115.263641 401.184662,114.118462 401.216797,111.376816   C401.349670,100.045670 401.303375,88.711876 401.239105,77.379524   C401.229126,75.627136 402.164703,73.296303 398.717987,73.175949   C395.343719,73.058136 395.449463,74.986931 395.456299,77.292984   C395.489990,88.625595 395.342102,99.960747 395.552277,111.289551   C395.612091,114.514076 394.561493,115.187599 391.580841,115.110130   C388.835480,115.038788 387.420685,114.845192 387.493469,111.417496   C387.734009,100.089897 387.579895,88.754005 387.586700,77.421295   C387.588013,75.231796 387.922302,73.138206 384.455811,73.165443   C381.047394,73.192253 381.791992,75.396492 381.785126,77.227539   C381.744232,88.226784 381.722961,99.226517 381.793152,110.225464   C381.811005,113.027290 382.126923,115.090752 377.912567,115.202797   C373.329437,115.324638 373.803284,112.931091 373.816406,110.034607   C373.868500,98.535477 373.851990,87.035942 373.829620,75.536621   C373.823090,72.174339 373.398682,68.362648 377.104584,66.798622   C381.133698,65.098198 385.614807,64.848083 389.548737,67.202049   C391.120697,68.142677 391.593781,68.521851 393.376129,67.301857   C397.182617,64.696404 401.760132,65.137840 405.792664,66.733505   C409.498077,68.199715 409.218079,72.007324 409.207611,75.401901   C409.171692,87.067734 409.194122,98.733742 409.194275,110.885063  z"/>
<path fill="#F3F3F3" opacity="1.000000" stroke="none" d=" M228.551697,104.583923   C228.096924,112.473007 226.499908,114.004433 219.169800,114.023270   C217.341522,114.027969 215.513229,114.022247 213.684937,114.019951   C209.217239,114.014343 206.719574,111.583763 206.657913,107.319733   C206.482483,95.190186 206.500671,83.055237 206.650269,70.924980   C206.703766,66.586510 209.359665,64.346848 213.682755,64.126984   C214.014435,64.110115 214.347580,64.124382 214.679810,64.115364   C227.532349,63.766479 228.551956,64.765053 228.552109,77.705345   C228.552216,86.514404 228.552032,95.323463 228.551697,104.583923  z"/>
<path fill="#FBFBFB" opacity="1.000000" stroke="none" d=" M418.121765,115.006065   C415.483307,115.324997 414.788177,114.454483 414.801544,112.252197   C414.889191,97.779732 414.900665,83.306076 414.794434,68.833855   C414.776398,66.376045 415.594940,65.703232 417.929565,65.802177   C421.915192,65.971100 425.913544,65.810112 429.904755,65.885361   C433.631348,65.955620 435.978210,68.022896 436.229034,71.620056   C436.585602,76.733871 436.261963,81.857170 435.907471,87.002121   C435.639648,90.889412 436.385803,95.033524 436.464325,99.080574   C436.784485,115.582314 436.073639,115.309113 420.605530,115.007957   C419.940338,114.995003 419.274719,115.006279 418.121765,115.006065  z"/>
<path fill="#F9F9F9" opacity="1.000000" stroke="none" d=" M442.020813,79.087952   C442.029663,76.441078 441.861755,74.260765 442.086243,72.121628   C442.483368,68.337044 444.554871,65.904221 448.531799,65.895958   C460.103638,65.871910 464.410492,63.659302 463.869232,79.912201   C463.520691,90.377304 463.659912,100.866585 463.887970,111.338333   C463.959991,114.646729 462.712952,115.141243 459.854309,115.098442   C457.153412,115.058006 455.580078,114.915550 455.792908,111.454987   C456.125763,106.042740 455.881104,100.594971 455.881104,94.950356   C451.445282,95.596436 449.390442,97.471809 449.879211,101.880516   C450.225220,105.001801 449.698181,108.217407 450.013855,111.345184   C450.348206,114.657936 448.918671,115.179962 446.044708,115.093712   C443.426025,115.015114 441.836121,115.026932 441.924652,111.499718   C442.191620,100.863396 442.020905,90.216087 442.020813,79.087952  z"/>
<path fill="#F9F9F9" opacity="1.000000" stroke="none" d=" M258.912354,107.000488   C259.814575,109.350998 260.602905,111.340775 261.407349,113.371140   C253.595459,114.877907 253.604004,114.874557 250.900970,107.981567   C249.206741,103.661156 247.482117,99.352669 245.652100,94.738770   C241.194763,98.847755 241.738388,104.050842 242.105942,108.963440   C242.413696,113.076569 241.284058,114.565575 237.029816,114.123749   C234.673813,113.879059 233.971954,113.329590 233.987823,110.962852   C234.085938,96.325554 234.129913,81.686287 233.972931,67.050018   C233.933365,63.361252 236.230072,64.210144 238.253632,64.131470   C240.279373,64.052704 242.240814,63.723019 242.068375,66.972824   C241.830795,71.450325 242.008835,75.949883 242.008835,81.235413   C244.909744,77.702545 245.901199,73.948212 247.491714,70.548904   C250.694946,63.702831 250.624878,63.670044 258.923859,64.504692   C256.295013,70.173553 253.826462,75.759323 251.112854,81.223389   C249.975266,83.514030 249.978973,85.463287 250.997223,87.790779   C253.722107,94.019318 256.214020,100.349785 258.912354,107.000488  z"/>
<path fill="#FBFBFB" opacity="1.000000" stroke="none" d=" M308.980408,104.955719   C308.980408,106.781303 308.866608,108.124832 309.003387,109.442352   C309.316742,112.461098 309.002716,114.187004 305.005737,114.183716   C301.029205,114.180450 300.928131,112.489983 300.964874,109.455841   C301.101807,98.137894 300.994781,86.817200 301.041443,75.497787   C301.050232,73.370773 301.211578,71.768295 298.090088,71.777458   C295.167145,71.786041 294.955078,73.034645 294.970154,75.337334   C295.046417,86.989372 294.876831,98.644508 295.089233,110.293167   C295.147156,113.469658 294.194519,114.145943 291.197723,114.115944   C288.164551,114.085609 286.890656,113.621628 286.948517,110.109123   C287.176117,96.296295 287.034424,82.477493 287.046082,68.660927   C287.049591,64.531776 290.943451,61.770996 293.905060,64.466179   C296.166656,66.524284 296.951538,65.276222 298.483612,64.688377   C304.087585,62.538136 308.892609,65.797401 308.950623,72.001495   C309.051788,82.820763 308.979797,93.641647 308.980408,104.955719  z"/>
<path fill="#FAFAFA" opacity="1.000000" stroke="none" d=" M358.850891,115.008255   C356.732697,115.006439 355.066345,115.021820 353.400482,114.999435   C349.145569,114.942268 346.722046,112.547852 346.653076,108.532593   C346.447144,96.540825 346.453247,84.542038 346.613922,72.549164   C346.671387,68.259605 349.166504,66.018707 353.645599,65.817619   C367.220947,65.208145 368.145813,66.026505 368.145874,79.597961   C368.145905,88.428459 368.171814,97.259048 368.137451,106.089417   C368.110016,113.141129 366.375549,114.857483 358.850891,115.008255  z"/>
<path fill="#F9F9F9" opacity="1.000000" stroke="none" d=" M327.946167,86.014709   C327.947083,92.665947 328.008698,98.820541 327.913696,104.972710   C327.883240,106.945145 328.613678,107.729614 330.512207,107.489433   C331.854065,107.319679 334.109955,108.040031 333.788330,105.696846   C332.982483,99.825203 337.897736,99.966743 341.651794,97.580444   C341.651794,101.934822 341.994720,105.674461 341.552765,109.318924   C341.133606,112.775566 338.862854,114.943489 335.094482,115.006165   C334.761932,115.011703 334.429108,115.003502 334.096680,115.012299   C320.734436,115.365868 320.020874,114.671318 320.020935,101.306129   C320.020966,92.491440 320.004303,83.676697 320.027039,74.862068   C320.045013,67.897415 322.002258,65.899750 328.777039,65.841751   C330.440063,65.827515 332.108002,65.920708 333.765533,65.824219   C338.066772,65.573875 340.672394,67.449173 341.709930,71.681633   C342.782837,76.058235 340.434937,78.057716 336.771606,79.295029   C336.012848,79.551300 335.288269,79.908684 334.578827,80.206490   C333.421906,78.888939 333.840363,77.499748 333.930206,76.281235   C334.111145,73.827278 333.082611,73.244171 330.761353,73.164223   C328.005798,73.069321 327.861450,74.479332 327.923431,76.536774   C328.013519,79.527740 327.946289,82.523438 327.946167,86.014709  z"/>
<path fill="#F9F9F9" opacity="1.000000" stroke="none" d=" M263.037109,73.324905   C263.360321,66.195930 265.336700,64.210434 271.757477,64.135551   C273.754639,64.112251 275.794708,64.392876 277.740875,64.076965   C281.923431,63.398033 282.274933,65.589188 282.168854,68.922646   C282.090485,71.385986 281.253998,71.892456 278.958984,71.963669   C270.974335,72.211456 270.978058,72.309677 271.008942,80.476463   C271.013855,81.771461 271.009644,83.066498 271.009644,84.887398   C274.790741,83.065430 278.144440,81.449409 281.637848,79.766060   C282.894623,85.260704 282.362396,89.171005 276.466614,91.337402   C271.484528,93.168068 268.858490,100.351059 271.158478,105.072067   C272.470459,107.765137 275.575012,106.099915 277.842133,106.275002   C280.267548,106.462318 282.214508,106.090424 282.223236,109.768295   C282.231628,113.291924 281.293304,114.390137 277.802673,114.083008   C274.168915,113.763290 270.469452,113.802345 266.828094,114.075905   C263.746613,114.307404 262.906464,113.352486 262.956787,110.235428   C263.152771,98.087799 263.036835,85.935135 263.037109,73.324905  z"/>
<path fill="#F7F7F7" opacity="1.000000" stroke="none" d=" M186.943970,105.948761   C186.943954,95.656616 186.840912,85.854187 187.005341,76.056252   C187.056091,73.031914 186.549301,71.256325 183.051361,71.898689   C179.779037,72.499619 178.901794,71.092163 178.891525,67.843742   C178.881332,64.621994 179.977722,63.951153 182.919678,64.064186   C188.559235,64.280861 194.218124,64.271782 199.858810,64.071014   C202.939957,63.961346 202.900101,65.675636 202.865784,67.838898   C202.830673,70.051270 203.174835,72.511314 199.735565,71.878563   C195.213287,71.046570 194.755280,73.318993 194.838852,77.116570   C195.080032,88.074753 194.790680,99.044289 195.004898,110.003593   C195.069580,113.312851 194.079742,114.084564 190.869583,114.146996   C187.449936,114.213501 186.496735,113.028091 186.918915,109.925209   C187.074249,108.783546 186.943970,107.603020 186.943970,105.948761  z"/>
<path fill="#F7F7F7" opacity="1.000000" stroke="none" d=" M483.279877,74.211205   C483.140808,86.835846 483.041443,98.997719 483.187592,111.156631   C483.222656,114.073738 482.712708,115.283585 479.434479,115.127663   C476.495300,114.987862 475.010864,114.746506 475.096405,111.126572   C475.359955,99.971436 475.062256,88.803673 475.270660,77.646202   C475.334351,74.235725 474.508545,72.623886 470.920074,73.246742   C467.907318,73.769676 467.389740,72.199997 467.386627,69.550507   C467.383484,66.894325 467.878632,65.639763 470.925446,65.767586   C476.579498,66.004791 482.257019,65.997131 487.911865,65.770363   C490.855072,65.652328 491.077576,67.030083 491.026520,69.347504   C490.975677,71.652390 491.211731,73.733360 487.802673,73.300507   C486.370483,73.118652 484.800934,72.916901 483.279877,74.211205  z"/>
<path fill="#6835CC" opacity="1.000000" stroke="none" d=" M146.482544,78.157913   C150.716187,86.814102 151.801376,96.011757 154.359192,105.135071   C150.430664,105.608566 147.187073,103.367218 143.262970,104.844177   C147.160461,108.217400 151.272034,111.042526 153.051971,115.775993   C153.865753,117.940094 155.573288,120.296379 151.878113,122.071594   C151.677261,120.913948 152.128311,119.667610 151.257141,118.551117   C151.080826,117.854630 150.506744,118.556870 151.134735,118.339531   C151.164230,118.329315 151.373993,118.881317 151.515610,119.163452   C151.900284,119.929840 151.738327,120.698898 151.549469,121.811554   C151.531738,122.422440 151.509521,122.692062 151.289536,123.316017   C150.089615,123.634628 150.703308,124.287292 150.808594,124.890297   C149.865829,127.687538 151.163300,130.231033 151.081329,132.817062   C150.929367,137.612717 148.993820,141.304794 145.172379,145.074463   C145.172379,142.017029 145.172379,139.631561 145.172379,137.246094   C142.634171,141.882187 140.856003,147.034088 135.458527,148.896988   C130.338394,150.664185 125.015381,150.699768 119.377228,148.854889   C116.699646,145.829407 119.298492,144.412994 120.993919,142.684067   C109.197769,138.421890 97.426323,134.554062 87.126999,126.727966   C83.496384,124.251625 79.552238,122.972618 76.293518,119.887474   C75.323593,117.022575 75.273140,114.558960 76.922653,111.876953   C80.659348,108.133720 84.673279,108.717552 89.162064,110.102036   C90.043678,110.417686 90.560005,110.511139 91.480774,110.505051   C92.119667,110.520653 92.372688,110.531891 92.992584,110.621887   C103.167305,114.139938 112.889847,117.878418 123.359955,118.919975   C125.167503,119.099785 126.961662,119.460136 128.775742,119.603638   C129.709335,119.677498 130.921494,120.047737 131.346848,118.847939   C131.706924,117.832222 131.125580,116.610481 130.238861,116.316750   C124.638504,114.461632 124.299911,109.851982 124.089912,104.749207   C124.351799,100.237457 125.753448,96.488136 128.567276,93.229012   C126.102303,92.047607 124.001091,93.157722 121.909454,93.071770   C118.602409,92.935844 117.434814,91.225883 118.696510,88.169243   C119.973663,85.075096 122.473831,82.935295 125.140854,80.807106   C122.510979,79.545349 119.920311,79.074455 116.961243,78.551476   C112.933205,78.796265 109.261665,79.397545 105.495743,77.356766   C108.622719,71.395470 113.153801,66.847290 118.759590,63.416248   C126.810532,58.488640 136.575104,58.712254 143.972229,64.542297   C146.659500,66.660271 150.841522,68.169701 149.185303,73.779915   C148.497437,76.109940 152.886978,78.938805 152.863113,82.902351   C150.320099,81.863083 149.623337,79.319679 147.406311,78.017120   C146.881805,77.880920 146.672958,77.862442 146.482544,78.157913  z"/>
<path fill="#6936CE" opacity="1.000000" stroke="none" d=" M43.667267,60.321724   C54.345356,59.049805 61.246567,65.034225 67.628181,72.007378   C68.845512,73.337547 69.858467,74.854759 71.070923,76.612495   C68.315269,79.750557 64.746986,78.571365 61.024887,78.594666   C57.721760,78.098969 54.764713,77.451561 52.095909,79.912720   C52.986176,81.430580 54.803391,81.547668 56.342762,82.667999   C56.833473,83.006180 57.021599,83.155838 57.459732,83.569542   C58.161289,84.420914 58.493469,85.072464 58.842087,86.123840   C59.035984,87.227211 58.953934,87.950844 58.492977,88.958412   C55.806053,91.167580 52.852123,90.062096 50.137726,90.521858   C48.858871,90.738464 47.252098,90.858620 46.783508,92.200394   C46.353378,93.432037 47.756538,94.172279 48.541645,94.960159   C50.276932,96.701523 51.693333,98.837234 54.486259,99.888374   C55.897762,100.824554 56.636230,101.801529 56.646313,103.561478   C53.580395,107.996506 48.647751,109.603951 45.132393,113.182526   C36.597076,121.871368 36.362202,127.765556 45.070747,136.271011   C47.587437,138.729019 50.535095,140.565628 53.664478,142.092361   C57.664536,144.043869 59.389412,146.936508 57.695549,151.661407   C56.511902,152.759506 55.443447,153.360321 53.815544,153.631256   C52.950996,153.739883 52.465023,153.661713 51.718399,153.242538   C51.275826,151.029877 50.207825,150.361374 48.257645,150.305695   C46.371346,150.251846 44.499001,149.709183 42.275742,149.160797   C41.522572,148.484833 40.919224,148.511871 40.169792,148.165466   C39.936497,148.007904 39.994247,147.988297 39.998047,148.018555   C35.596107,142.630463 35.446449,142.223083 33.286011,129.728760   C31.813429,130.569153 30.947981,132.864990 28.836702,132.009476   C26.633701,131.116806 26.624191,128.916748 26.452818,126.925644   C25.773104,119.028343 27.181023,112.001518 34.609451,107.514847   C37.721931,105.634949 36.315987,104.208435 34.165939,102.844688   C33.882454,102.664886 33.538956,102.630386 33.237061,102.511284   C26.239044,99.750595 26.242725,99.748543 27.541702,92.537712   C27.629492,92.050385 27.640848,91.548653 27.785812,90.710495   C29.864939,85.991249 31.477755,81.462456 33.144691,76.957024   C33.711040,75.426292 34.529640,73.720581 31.984432,73.012184   C28.831249,72.134583 29.736893,70.294823 31.070034,68.539673   C33.759640,64.998680 37.389851,62.770348 41.739578,61.047058   C41.934406,60.763588 41.976494,60.871475 41.920258,60.885273   C42.361588,60.669552 42.878578,60.506947 43.667267,60.321724  z"/>
<path fill="#7645D9" opacity="1.000000" stroke="none" d=" M57.539330,152.217804   C57.911556,146.981049 55.517643,144.677368 51.267410,142.424866   C43.874580,138.506897 37.255569,133.394104 36.977455,123.733269   C36.901215,121.084709 37.788795,118.913338 39.536133,116.942749   C44.196579,111.686829 49.270393,106.980148 56.126556,103.917877   C60.086903,105.694168 57.341072,106.824280 55.848213,107.827469   C51.678394,110.629585 48.274693,114.148460 44.789429,118.567497   C48.160545,119.154305 50.917454,118.089630 53.623425,118.566032   C55.092495,118.824677 56.876755,118.834602 57.285381,120.589806   C57.758904,122.623772 55.929428,122.950905 54.531906,123.405739   C53.230339,123.829338 52.064007,124.363548 51.034740,126.937645   C57.608990,121.811302 64.388420,122.398262 71.453674,122.603943   C72.269203,122.673065 72.724693,122.766403 73.486137,123.047348   C75.804382,124.541862 77.278908,126.595238 79.881462,127.672714   C80.371132,127.889458 80.557961,127.992622 80.998627,128.285751   C81.706123,128.897873 82.096306,129.379333 82.746834,130.028107   C83.447151,130.620758 83.952812,130.968719 84.755463,131.463638   C88.426071,134.409363 92.867218,135.705292 95.889709,139.539124   C99.257103,141.859756 102.459900,143.871384 106.297295,146.281586   C90.500938,154.274139 74.324158,153.851227 57.539330,152.217804  z"/>
<path fill="#6635C8" opacity="1.000000" stroke="none" d=" M78.359596,10.635969   C86.572227,2.589543 89.248314,2.381312 97.868446,9.838618   C102.865341,14.161447 108.045753,18.488758 109.949768,25.648354   C106.215912,27.328205 105.548317,22.852613 102.538185,22.119839   C101.697769,21.555090 101.233337,21.071918 100.575516,20.311090   C100.210823,19.892639 100.064659,19.725353 99.709366,19.298798   C98.358833,17.661955 96.999847,16.462355 95.937706,14.585342   C94.806496,11.818519 92.998161,10.417123 90.180061,10.251995   C89.359619,12.130539 89.617065,13.977630 88.687897,15.911541   C87.437119,17.516487 85.894165,18.238802 84.642120,19.321699   C79.272530,23.965866 74.962425,29.197386 73.346199,36.446419   C72.123787,41.929127 70.242950,47.268684 69.197418,52.812847   C68.671631,55.600975 68.754570,58.156361 72.022270,59.849594   C75.707420,63.224136 77.980438,67.236259 80.725639,71.333847   C81.120865,72.276009 80.839172,71.489639 81.077759,72.112152   C82.643646,76.197670 84.756844,81.501038 88.740768,81.641129   C92.713409,81.780823 93.938705,76.019958 95.773148,72.012268   C97.603333,67.911362 100.213921,64.775558 103.224014,61.485886   C105.014053,60.495552 106.311859,59.155807 108.526398,59.750774   C109.183121,61.296959 109.416245,62.683804 108.360794,63.747070   C102.103477,70.050697 98.414780,78.259964 92.578751,84.893723   C90.126350,87.681351 88.290001,87.771782 85.728584,85.145233   C82.820114,82.162796 79.959351,79.174011 77.605644,75.725655   C72.853836,68.763901 67.810982,62.083035 61.056007,56.839424   C59.763950,55.836449 58.423897,54.182629 59.015678,52.093529   C62.291603,40.528793 63.955631,28.415007 70.596802,17.993883   C70.684113,17.856882 70.827179,17.755413 71.217674,17.416910   C71.491127,17.196461 71.804329,17.512726 71.993614,17.632912   C72.182899,17.753098 72.590286,17.571421 72.679085,17.365633   C72.767883,17.159845 72.522301,16.788021 72.364449,16.630781   C72.890312,15.667976 73.574020,14.862412 74.560959,13.952841   C75.087120,14.078526 75.311264,14.307048 75.536606,14.534401   C75.762184,14.761998 75.685768,14.687693 75.078201,14.087754   C75.532166,13.066333 76.215263,12.268633 77.190643,11.336973   C77.482933,11.203015 77.792686,11.522641 77.974655,11.651448   C78.156631,11.780255 78.558990,11.594518 78.642395,11.387688   C78.725800,11.180857 78.519379,10.789183 78.359596,10.635969  z"/>
<path fill="#8769C3" opacity="1.000000" stroke="none" d=" M117.176849,32.523865   C131.347519,36.394123 143.931076,43.055237 155.924133,50.927387   C156.714142,51.445942 157.861343,52.261341 157.887131,52.973255   C158.148605,60.194523 158.374237,67.432129 157.255066,74.850533   C155.234833,73.822983 155.120987,72.178856 154.482315,70.898224   C148.841629,59.588165 137.832413,53.781048 125.306183,55.516830   C124.067368,55.688496 122.296516,57.052994 122.071915,54.245491   C121.509323,47.213242 118.189362,40.892708 116.721634,33.695847   C116.742317,33.095512 116.804314,32.877998 117.176849,32.523865  z"/>
<path fill="#6734CB" opacity="1.000000" stroke="none" d=" M20.696846,50.836288   C33.013142,42.780788 45.689327,36.356266 60.053040,31.909578   C59.255287,38.020496 56.550892,43.086273 55.596630,48.528770   C54.667217,53.829582 53.245560,55.870041 46.803265,55.483986   C35.649227,54.815575 27.140553,60.663815 22.109512,70.918297   C21.182310,72.808159 20.493769,74.815125 19.237194,77.887604   C18.845999,69.532341 18.542572,62.346008 18.151175,55.164467   C18.047075,53.254395 18.863855,52.000793 20.696846,50.836288  z"/>
<path fill="#7745DC" opacity="1.000000" stroke="none" d=" M104.971344,77.284599   C109.303055,77.046700 113.394104,77.059166 117.973907,77.115051   C117.567467,86.031494 118.101875,94.965538 117.391891,103.833633   C117.063141,107.939964 113.884521,110.442184 110.223541,112.758011   C106.567009,114.160049 103.477135,112.115784 99.870621,112.362190   C99.237747,112.273064 98.990189,112.219688 98.386383,112.050941   C96.732964,111.296204 95.549080,110.488617 94.233734,109.265213   C93.128479,103.708412 93.794891,98.383308 93.627396,93.078148   C93.595116,92.055916 93.797409,91.029846 94.725075,90.434944   C99.591385,87.314217 101.327805,81.780495 104.971344,77.284599  z"/>
<path fill="#7644D9" opacity="1.000000" stroke="none" d=" M58.751656,77.311554   C62.743435,76.993332 66.486717,76.983009 70.703064,76.956009   C75.493546,81.593147 77.300797,88.312302 83.528313,91.477814   C85.224144,92.339821 84.423897,94.851410 84.360725,96.598518   C84.248528,99.701027 85.020836,102.865738 83.428558,106.144562   C81.852165,107.282356 80.438835,107.483940 78.692619,107.766968   C77.411049,107.766479 76.517654,107.446625 75.242004,107.452866   C73.072655,107.449440 71.299995,107.150314 69.288132,106.400024   C68.798752,106.226379 68.614716,106.139008 68.194115,105.873154   C67.714432,105.407646 67.507744,105.097282 67.232437,104.535110   C66.850151,104.062607 66.535934,103.902748 65.885986,103.694160   C64.811867,103.194397 64.112236,102.589943 64.011482,101.771950   C63.175941,94.988258 59.600002,88.978989 58.526333,81.875305   C58.330235,80.198257 57.884842,78.908577 58.751656,77.311554  z"/>
<path fill="#7645DA" opacity="1.000000" stroke="none" d=" M57.641296,154.795197   C65.466461,157.815125 72.984138,160.504150 80.902924,161.662125   C83.592056,162.055344 84.803429,162.957672 84.417793,165.691986   C84.325882,166.343658 84.402069,167.019623 84.407433,167.684357   C84.467484,175.123367 84.467827,175.123367 92.505043,174.836304   C95.100899,173.554230 97.313339,173.321228 100.023636,174.736008   C99.275177,178.494583 96.128426,177.540802 93.852364,177.803635   C83.647369,178.982117 73.887878,177.002640 64.206024,172.641998   C64.755333,168.819061 61.347866,169.902496 59.584705,168.705170   C57.374123,167.724976 55.499420,166.859375 55.079155,164.103668   C55.362610,161.055267 55.051811,158.319702 56.331650,155.424606   C56.794128,154.939697 57.025951,154.794250 57.641296,154.795197  z"/>
<path fill="#8464C1" opacity="1.000000" stroke="none" d=" M28.343773,89.984787   C29.060328,90.576859 29.180569,91.127861 29.010269,91.565887   C26.679008,97.562088 28.893286,100.642563 35.071629,101.649887   C37.018028,101.967232 39.037781,103.462662 39.410000,105.408531   C39.867146,107.798409 37.085720,107.759132 35.669930,108.587219   C28.989662,112.494453 25.164694,123.323120 28.213945,130.075623   C28.888094,131.568512 29.732624,131.777496 30.714985,130.407578   C31.826696,128.857254 32.857208,127.248711 34.653694,124.580109   C35.170792,133.384079 36.527954,140.614059 39.974804,147.676819   C35.566944,146.373474 33.968769,142.375259 32.281223,138.118317   C30.455250,140.555710 32.221710,142.876556 31.616993,145.389099   C28.406818,142.670898 25.237656,139.108231 25.325636,135.747314   C25.518192,128.391434 22.192167,121.108772 25.074301,113.708054   C26.635489,109.699242 30.158543,107.798859 33.580601,104.757393   C29.486422,103.595566 26.117710,105.177452 22.314888,105.696571   C22.450169,102.326431 24.324148,99.727142 25.263069,96.472107   C24.968090,95.129036 25.150673,94.181229 25.627525,92.975220   C25.819427,92.534210 25.902962,92.361832 26.124065,91.939400   C26.454031,91.363869 26.657879,91.045723 27.040300,90.508240   C27.342264,90.151337 27.477324,90.021271 28.343773,89.984787  z"/>
<path fill="#7443D7" opacity="1.000000" stroke="none" d=" M94.206093,173.331665   C93.792778,172.718582 93.668243,172.397247 93.651039,172.070251   C93.159248,162.723129 93.151436,162.667160 102.308380,161.100052   C108.248459,160.083466 113.876595,158.130630 119.393684,155.801392   C120.817291,155.200348 122.218605,154.431732 123.394951,156.047562   C124.249565,157.221466 124.377205,158.591476 123.242508,159.664032   C121.338608,161.463654 123.357430,164.383087 121.021790,166.355667   C120.635979,167.179688 120.302170,167.508926 119.370659,167.545914   C116.886787,168.220749 114.779053,168.963211 112.353210,169.896469   C111.863762,170.242218 111.692421,170.397202 111.245453,170.342133   C110.194618,170.416702 109.419403,170.701355 108.341835,171.079590   C104.013084,174.590317 99.254242,173.969086 94.206093,173.331665  z"/>
<path fill="#7343D5" opacity="1.000000" stroke="none" d=" M101.715584,20.684174   C105.716866,20.490631 106.811646,24.192110 109.590515,25.942291   C110.286201,27.106237 110.652939,28.195873 111.022217,29.634237   C111.018295,30.554701 111.141052,31.089621 111.632568,31.795795   C112.527061,34.429344 113.264221,36.831406 114.011597,39.608532   C114.017090,40.555069 114.140564,41.089840 114.631439,41.795982   C114.912834,42.438084 115.037140,42.848606 115.199005,43.579178   C114.917442,45.084835 115.156609,46.385433 114.269623,47.795059   C115.291351,51.858200 116.617249,55.221737 112.133331,58.462364   C110.889076,59.361610 110.160988,59.158855 108.994484,59.687088   C107.374283,60.638256 105.927124,61.302090 104.131714,61.996162   C102.659889,60.468273 103.235260,58.814571 103.619820,57.234737   C104.749275,52.594711 104.735046,48.036934 102.983482,43.539021   C102.622185,42.611256 102.044456,41.495338 102.415054,40.655128   C105.942352,32.658199 102.774948,26.367689 97.467079,20.193562   C97.508392,19.581224 97.580322,19.340141 97.922150,18.830597   C98.937752,18.216976 99.680305,18.301748 100.731628,18.808985   C101.041817,19.039473 101.039696,18.964895 101.002602,18.960934   C101.362450,19.376146 101.485092,19.906345 101.715584,20.684174  z"/>
<path fill="#7444D6" opacity="1.000000" stroke="none" d=" M87.741302,125.405762   C94.359268,131.172653 102.612709,133.809097 110.419479,137.198029   C114.910133,139.147430 119.652313,140.517426 124.558525,142.245911   C123.024239,144.860046 118.412659,143.991943 118.984558,148.346893   C116.341690,145.953156 112.430405,146.659821 109.307320,145.166382   C107.465729,144.285782 105.831512,143.379898 104.770981,141.535934   C103.334732,139.038696 98.779701,140.415802 98.693153,135.076462   C98.080162,137.243790 97.865295,138.003479 97.342941,138.871216   C91.656120,137.557434 88.523354,133.994064 87.136215,128.309982   C86.973236,127.146637 87.099113,126.399010 87.741302,125.405762  z"/>
<path fill="#8263BE" opacity="1.000000" stroke="none" d=" M41.540955,60.742275   C40.204872,64.001015 36.284031,64.646797 34.119316,67.373291   C33.019730,68.758247 31.204531,69.572891 30.749336,71.528603   C36.521126,71.115585 36.923523,71.639091 34.726929,77.270927   C33.109226,81.418533 31.305790,85.493698 29.330139,89.839767   C29.075163,90.078384 29.046932,90.056923 29.039022,90.041595   C28.651567,89.726662 28.527607,89.316010 28.521832,88.854012   C28.439039,89.083832 28.459333,89.329941 28.198036,89.798996   C27.986567,90.033012 27.992899,89.987671 28.013241,89.977173   C27.578342,90.402283 27.505661,91.002945 27.168499,91.803688   C26.993090,92.042198 26.992819,91.998550 27.013815,91.992599   C26.342186,92.599236 25.559633,92.744164 24.382847,92.149643   C26.235090,87.093224 28.394728,82.324677 30.668154,77.304886   C27.292704,77.133934 25.886072,80.143044 23.472729,81.248123   C23.025539,72.015266 30.665920,63.141045 41.540955,60.742275  z"/>
<path fill="#785CB1" opacity="1.000000" stroke="none" d=" M130.315155,154.181244   C133.667709,154.107956 136.464920,152.430832 139.515335,153.128220   C138.077301,156.987946 136.284943,158.839233 130.024796,162.850586   C129.000732,159.943420 129.028351,157.161453 130.315155,154.181244  z"/>
<path fill="#6935CE" opacity="1.000000" stroke="none" d=" M57.210342,154.864502   C56.786308,157.920898 57.499092,160.738617 56.221287,163.745880   C55.040195,164.938797 56.157558,166.657578 54.260803,167.201263   C53.423962,166.826080 52.949219,166.556137 52.280510,166.089813   C51.554844,165.105042 52.211609,164.228577 51.819691,163.115936   C50.660454,159.882507 51.345688,156.859848 51.344368,153.435760   C51.791409,152.993500 52.138603,152.995911 52.746239,152.998047   C54.313190,152.020569 55.292747,152.849747 56.482590,153.906784   C56.677090,154.221878 56.713951,154.259399 56.733009,154.277527   C56.980919,154.388092 57.209770,154.480560 57.210342,154.864502  z"/>
<path fill="#6433C6" opacity="1.000000" stroke="none" d=" M46.998093,155.207581   C47.072529,157.908157 47.072529,160.173569 47.072529,163.318298   C42.537647,160.424744 39.347115,157.535278 36.193253,153.188553   C40.286377,154.177185 43.760380,152.981537 46.998093,155.207581  z"/>
<path fill="#130E2A" opacity="1.000000" stroke="none" d=" M87.647705,127.785721   C89.610641,132.362076 91.769951,136.491455 96.819794,138.719925   C96.759544,139.099335 96.515175,139.265732 96.178314,139.663269   C92.064728,137.434799 88.075150,135.021454 83.951385,132.283386   C83.955208,131.800629 84.093208,131.642578 84.511307,131.345993   C85.179749,131.129501 85.569878,131.091812 86.169144,131.233429   C87.031006,131.423065 86.261147,132.007065 86.683586,131.493393   C87.042778,131.056610 86.286278,131.005142 86.251495,130.345322   C86.136703,129.077515 86.408554,128.270569 87.647705,127.785721  z"/>
<path fill="#1A1236" opacity="1.000000" stroke="none" d=" M93.662628,173.191650   C98.410271,173.039093 102.839081,172.217468 107.638397,171.175003   C108.028290,171.545670 108.017097,171.918137 108.020149,172.569778   C107.636826,173.520004 107.024330,173.922928 105.972198,174.335388   C104.112129,174.353165 102.681648,174.836456 100.841675,175.044220   C100.470291,175.060593 100.403435,175.103760 100.423950,175.118713   C98.323219,174.260696 96.140396,175.179199 93.473015,174.830276   C93.117790,174.279236 93.287880,173.809982 93.662628,173.191650  z"/>
<path fill="#6E40CB" opacity="1.000000" stroke="none" d=" M59.446114,167.757889   C62.623615,167.043701 64.104073,169.455902 66.063957,170.575638   C67.102242,171.168808 66.967484,171.404678 64.251183,172.342590   C61.741413,171.443039 59.604851,170.464859 57.211304,169.268570   C56.757748,167.254410 58.017479,167.543854 59.446114,167.757889  z"/>
<path fill="#7B5CB9" opacity="1.000000" stroke="none" d=" M90.290024,110.710762   C86.125992,109.780487 82.317543,109.315536 78.371857,111.892281   C77.357361,111.392845 77.142059,110.680862 77.241707,109.500305   C78.620560,107.400139 80.067749,106.118164 82.702568,107.596161   C85.158363,108.372208 87.302269,108.938644 89.733482,109.723946   C90.210197,110.117271 90.399605,110.291740 90.290024,110.710762  z"/>
<path fill="#1A1236" opacity="1.000000" stroke="none" d=" M151.532394,122.130798   C150.687042,119.718788 149.820145,117.284760 148.953232,114.850723   C150.968079,116.703018 153.609665,118.275681 151.722961,121.893166   C151.461899,122.146225 151.510849,122.108772 151.532394,122.130798  z"/>
<path fill="#110E24" opacity="1.000000" stroke="none" d=" M23.944557,92.172058   C24.835636,91.770592 25.595821,91.679420 26.695408,91.787453   C27.420429,93.467422 26.258980,94.442101 25.596256,95.883316   C23.649839,95.408638 22.694960,94.387169 23.944557,92.172058  z"/>
<path fill="#502A9F" opacity="1.000000" stroke="none" d=" M59.608589,167.715714   C58.975765,168.137543 58.146427,168.320389 57.135704,168.776840   C56.052017,168.569244 55.149719,168.088058 54.073067,167.351440   C54.430042,166.219589 54.961369,165.343140 55.717709,164.250793   C56.120396,166.168762 58.221313,166.364029 59.608589,167.715714  z"/>
<path fill="#0E0C1F" opacity="1.000000" stroke="none" d=" M83.016663,107.568710   C81.496384,107.972580 79.756744,107.238403 78.326424,109.017456   C77.670815,108.719986 77.519463,108.225960 77.800606,107.315285   C79.333450,106.123535 80.720146,105.564003 82.677971,106.224655   C83.034264,106.699692 83.031372,107.015717 83.016663,107.568710  z"/>
<path fill="#2F1E5B" opacity="1.000000" stroke="none" d=" M93.836197,109.239609   C95.315826,109.403763 96.628319,109.811203 97.948395,110.566093   C96.630966,112.426422 95.030838,111.513069 93.130356,111.153137   C92.737419,110.890121 92.619461,110.843803 92.587021,110.898224   C92.308006,110.891083 92.061447,110.829521 91.904297,110.397400   C92.552147,109.845528 93.110603,109.664215 93.836197,109.239609  z"/>
<path fill="#7645DA" opacity="1.000000" stroke="none" d=" M100.476944,175.507965   C101.526558,173.438034 103.351326,174.290817 105.128006,173.726761   C106.044441,173.509964 106.513550,173.601059 106.929222,174.377869   C104.819504,175.353882 102.840736,176.678909 100.476944,175.507965  z"/>
<path fill="#6635C8" opacity="1.000000" stroke="none" d=" M114.333542,48.113251   C113.990852,46.811253 113.769295,45.505932 114.938004,44.137367   C115.613808,44.917252 115.991066,45.935276 116.397522,47.286469   C116.412117,47.819992 116.397499,48.020355 116.081879,48.206398   C115.394806,48.173664 115.008720,48.155251 114.333542,48.113251  z"/>
<path fill="#502A9F" opacity="1.000000" stroke="none" d=" M51.572926,163.132416   C54.097393,163.137482 54.085960,164.068481 52.242912,165.658875   C50.973644,165.327515 51.086727,164.421219 51.572926,163.132416  z"/>
<path fill="#311F5F" opacity="1.000000" stroke="none" d=" M56.809700,153.777527   C55.673004,153.824097 54.668922,153.426315 53.335762,153.013153   C53.800838,151.707535 55.104443,151.967728 56.675804,151.885010   C57.046711,151.855988 57.149902,152.131256 57.135796,152.277252   C57.061897,152.726562 57.002106,153.029877 56.809700,153.777527  z"/>
<path fill="#211544" opacity="1.000000" stroke="none" d=" M118.997711,167.803314   C119.417091,167.230484 119.839661,166.982681 120.505203,166.680328   C120.901985,167.535980 121.088264,168.531387 120.102539,169.047195   C119.284737,169.475098 119.174789,168.677460 118.997711,167.803314  z"/>
<path fill="#1A1236" opacity="1.000000" stroke="none" d=" M110.987083,170.433746   C111.146286,170.098404 111.322731,170.064789 111.767136,170.059219   C112.410263,171.161575 112.968292,172.272263 111.461235,172.972183   C111.308929,172.226608 111.156631,171.481049 110.987083,170.433746  z"/>
<path fill="#6E40CB" opacity="1.000000" stroke="none" d=" M107.246780,174.738220   C106.639832,174.505539 106.345612,174.247147 105.784256,173.853470   C106.137718,173.479904 106.758301,173.241623 107.706635,172.926147   C108.575485,173.090057 109.116570,173.331177 109.657654,173.572296   C108.958275,173.952377 108.258904,174.332443 107.246780,174.738220  z"/>
<path fill="#6635C8" opacity="1.000000" stroke="none" d=" M111.817596,31.739605   C110.904678,31.795670 109.971451,31.597107 110.818054,30.149225   C111.298271,30.472620 111.571793,30.962271 111.817596,31.739605  z"/>
<path fill="#6635C8" opacity="1.000000" stroke="none" d=" M114.816711,41.739723   C113.897919,41.800289 112.970741,41.598240 113.815125,40.150185   C114.296165,40.473026 114.570534,40.962452 114.816711,41.739723  z"/>
<path fill="#0E0C1F" opacity="1.000000" stroke="none" d=" M150.964249,124.927414   C150.493195,124.390373 148.785965,123.653137 151.029449,123.309753   C151.054459,124.026215 151.017166,124.382072 150.964249,124.927414  z"/>
<path fill="#6635C8" opacity="1.000000" stroke="none" d=" M117.105110,52.503067   C117.238411,51.937550 117.428734,51.655884 117.619049,51.374214   C117.655838,51.917942 117.699875,52.461460 117.716026,53.005798   C117.717361,53.050644 117.482010,53.167271 117.438576,53.136154   C117.322563,53.053047 117.251228,52.907597 117.105110,52.503067  z"/>
<path fill="#8263BE" opacity="1.000000" stroke="none" d=" M43.617306,60.156338   C43.418068,60.434471 42.926662,60.671432 42.149643,60.903732   C42.351063,60.637768 42.838100,60.376469 43.617306,60.156338  z"/>
<path fill="#8464C2" opacity="1.000000" stroke="none" d=" M91.664711,110.002319   C92.102440,110.171638 92.211189,110.316444 92.437256,110.706955   C91.984535,110.966171 91.414490,110.979683 90.417747,110.974258   C89.995270,110.786545 89.999489,110.617767 90.012253,110.195900   C90.459106,109.954468 90.897415,109.966133 91.664711,110.002319  z"/>
<path fill="#6635C8" opacity="1.000000" stroke="none" d=" M116.264618,47.762001   C116.855103,48.305187 117.359444,48.983162 116.642731,49.783043   C116.381958,49.466728 116.121185,49.150410 115.820648,48.513084   C115.780884,48.192078 116.102493,47.904373 116.264618,47.762001  z"/>
<path fill="#8464C1" opacity="1.000000" stroke="none" d=" M40.128475,148.225510   C40.483803,148.167145 41.031109,148.326401 41.754684,148.712997   C41.394123,148.774597 40.857288,148.608856 40.128475,148.225510  z"/>
<path fill="#1C1535" opacity="1.000000" stroke="none" d=" M23.358143,131.319061   C23.371084,131.057281 23.508377,130.914322 23.645674,130.771362   C23.591282,130.993546 23.536888,131.215714 23.358143,131.319061  z"/>
<path fill="#8769C3" opacity="1.000000" stroke="none" d=" M116.890778,33.089161   C116.060814,32.689129 115.927925,32.225410 117.270950,32.281761   C117.358681,32.546593 117.229958,32.705940 116.890778,33.089161  z"/>
<path fill="#6635C8" opacity="1.000000" stroke="none" d=" M77.595749,11.411873   C77.599228,11.003134 77.745972,10.828908 78.061493,10.581547   C78.199814,10.482757 78.631783,10.725674 78.827042,10.878245   C79.211388,11.520137 79.078201,11.913997 78.332352,12.112091   C77.996391,11.998294 77.708565,11.620730 77.595749,11.411873  z"/>
<path fill="#6635C8" opacity="1.000000" stroke="none" d=" M71.616310,17.418388   C71.608383,16.997017 71.754883,16.822063 72.068604,16.572571   C72.206596,16.473541 72.623566,16.706228 72.811783,16.853115   C73.246078,17.459925 73.161499,17.847719 72.401176,18.102280   C71.951248,17.907558 71.846375,17.773937 71.616310,17.418388  z"/>
<path fill="#311F5F" opacity="1.000000" stroke="none" d=" M57.244972,155.113220   C56.982056,155.155975 56.821217,154.737274 56.786644,154.516449   C57.064995,154.384277 57.377922,154.472931 57.857830,154.751587   C57.852505,154.984528 57.680195,155.027496 57.244972,155.113220  z"/>
<path fill="#28292C" opacity="1.000000" stroke="none" d=" M220.533829,93.977570   C220.533432,97.296211 220.488922,100.120590 220.547745,102.942810   C220.589340,104.937897 220.514297,106.422356 217.752823,106.476990   C214.918015,106.533073 214.488480,105.285324 214.512711,102.886269   C214.606644,93.586426 214.610367,84.284424 214.508896,74.984734   C214.483719,72.676971 215.099075,71.793373 217.561295,71.787804   C220.087494,71.782097 220.611557,72.798111 220.570999,75.047569   C220.460236,81.190742 220.533508,87.337219 220.533829,93.977570  z"/>
<path fill="#2E2E32" opacity="1.000000" stroke="none" d=" M422.673828,101.895851   C422.343872,97.143387 422.250580,92.977226 428.691925,92.787430   C428.691925,96.375351 428.645142,99.965485 428.708893,103.553658   C428.749359,105.832024 428.906586,107.742645 425.528717,107.710602   C422.351593,107.680466 422.611420,105.849182 422.671661,103.818008   C422.686371,103.321915 422.673828,102.825012 422.673828,101.895851  z"/>
<path fill="#2A2B2E" opacity="1.000000" stroke="none" d=" M428.677063,77.128441   C429.388245,81.930206 427.958832,84.881706 422.686432,85.734879   C422.686432,82.764786 422.620697,79.848221 422.712219,76.936600   C422.763306,75.311073 421.918549,73.203972 425.034210,73.105804   C427.812347,73.018272 429.106354,73.835938 428.677063,77.128441  z"/>
<path fill="#222327" opacity="1.000000" stroke="none" d=" M454.720764,73.301987   C456.737976,76.842033 455.866180,80.499832 455.788177,84.037781   C455.724457,86.927963 452.478760,86.645645 449.929474,88.922401   C449.929474,83.561943 449.742401,79.234138 449.993622,74.931931   C450.168335,71.939751 452.781250,73.671097 454.720764,73.301987  z"/>
<path fill="#28292D" opacity="1.000000" stroke="none" d=" M354.308960,83.064056   C354.309631,80.410118 354.435883,78.234924 354.278809,76.080383   C354.087311,73.453987 355.490936,73.179695 357.638184,73.120102   C360.049072,73.053200 360.322906,74.258865 360.312714,76.188507   C360.262482,85.685486 360.245148,95.183258 360.324890,104.679840   C360.342438,106.772438 359.765778,107.664375 357.522064,107.649139   C355.252808,107.633736 354.215820,107.052185 354.263702,104.544983   C354.397339,97.549576 354.309418,90.549934 354.308960,83.064056  z"/>
<path fill="#0A0919" opacity="1.000000" stroke="none" d=" M108.580566,112.694878   C115.932732,108.078346 117.209145,101.624893 116.323151,93.773201   C115.731026,88.525764 114.884224,82.853378 118.306458,77.516022   C121.968697,77.622581 125.085426,79.205101 129.107315,80.665565   C123.460678,82.866562 120.466187,86.648041 118.477173,92.024773   C123.152115,92.079819 127.238800,90.146378 131.939392,92.305832   C128.377075,95.225266 125.782921,98.559273 124.798126,103.158722   C124.608788,103.610336 124.605568,103.828796 124.480804,104.353607   C124.279945,104.867821 124.200645,105.075691 123.740196,105.838974   C121.741035,109.201439 121.397354,112.573395 119.161118,115.480637   C115.218575,117.469009 111.733467,117.030220 108.136261,114.566864   C107.699028,113.704582 107.800720,113.214500 108.580566,112.694878  z"/>
<path fill="#8464C2" opacity="1.000000" stroke="none" d=" M123.943954,104.115814   C124.139969,103.931755 124.292831,103.586105 124.452423,103.488983   C125.526047,105.009399 126.148125,106.715012 125.952385,108.604134   C125.623428,111.779053 126.817863,113.551285 130.160309,114.061310   C133.654694,114.594521 134.023239,117.908287 133.689743,120.247276   C133.256546,123.285736 130.643295,121.366493 128.872238,121.198219   C116.430466,120.016068 104.388199,117.388145 92.993263,111.170700   C94.213699,111.026451 95.689980,111.162773 97.561127,111.106323   C97.955986,110.913544 97.985992,110.942444 97.980743,110.962158   C101.045692,112.126038 104.482498,111.831512 107.745941,113.630402   C111.402878,114.764389 114.767159,115.595390 118.652878,114.950432   C120.869781,112.035095 121.739609,108.790588 122.768417,105.227364   C122.957329,104.920029 122.985062,104.984711 122.949982,104.981934   C123.202873,104.765350 123.481087,104.539581 123.943954,104.115814  z"/>
<path fill="#130E2B" opacity="1.000000" stroke="none" d=" M77.731133,106.808624   C78.012238,107.451805 78.018211,107.935486 78.036575,108.781845   C78.021347,109.842400 77.993713,110.540253 77.980698,111.585457   C76.667686,114.225182 77.167274,116.742104 77.155777,119.607437   C79.307610,122.438812 80.544884,125.275955 81.170296,128.692215   C77.792717,129.050049 75.703415,127.185120 73.782135,124.405106   C72.852715,121.994125 70.908768,121.416870 68.908859,120.365463   C68.472557,119.708786 68.371765,119.273949 68.479034,118.493423   C68.951981,117.491737 69.704834,117.426704 70.309059,117.117180   C69.610023,116.872215 68.815987,117.001198 67.916985,116.342911   C67.472168,115.706070 67.369766,115.277008 67.473343,114.503853   C68.104088,112.759361 69.894638,113.895767 70.495125,112.439285   C70.450768,111.950127 70.467690,111.744957 70.625549,111.249878   C71.620544,110.139076 72.901329,110.642952 73.963165,109.732620   C74.293983,108.518951 74.106804,107.498405 74.770409,106.363602   C75.804115,106.317337 76.630058,106.483223 77.731133,106.808624  z"/>
<path fill="#7645D9" opacity="1.000000" stroke="none" d=" M81.028229,129.018433   C78.934593,126.658913 76.678764,124.354767 77.155678,120.398499   C80.951515,120.878548 83.949608,123.262688 87.638100,125.020546   C87.985283,125.776871 87.987984,126.449112 87.991180,127.458847   C86.998520,128.325378 87.034874,129.243408 87.075195,130.511856   C87.170044,131.014053 87.284401,131.174698 87.219482,131.570633   C86.582512,131.833176 86.124817,131.860443 85.334732,131.793915   C84.326599,131.165390 83.484230,131.022125 82.431061,130.574371   C81.811882,130.172180 81.548027,129.855438 81.180290,129.217651   C80.986122,128.969955 81.012253,129.004044 81.028229,129.018433  z"/>
<path fill="#0A0919" opacity="1.000000" stroke="none" d=" M120.685455,76.118469   C120.406395,75.807938 120.340088,75.382164 120.418877,74.985184   C120.438728,74.885109 120.922729,74.877144 121.193428,74.826843   C121.112953,75.222527 121.032471,75.618210 120.685455,76.118469  z"/>
<path fill="#070813" opacity="1.000000" stroke="none" d=" M146.652939,78.333420   C146.406799,78.129166 146.312592,77.786469 146.218384,77.443771   C146.442841,77.440987 146.667282,77.438202 146.991180,77.667404   C147.090637,77.899399 146.804886,78.194984 146.652939,78.333420  z"/>
<path fill="#060712" opacity="1.000000" stroke="none" d=" M67.979805,113.954773   C67.950745,114.572281 67.945984,114.871864 67.952850,115.395981   C67.642456,116.513847 67.850540,117.206413 68.850967,117.904236   C68.972519,118.516403 68.974548,118.867683 68.969078,119.482361   C68.329872,121.140221 69.483994,120.930504 70.170341,121.028824   C71.630920,121.238060 72.640259,121.818108 72.406448,123.805496   C63.514477,123.160736 55.227013,124.881073 47.257473,128.977936   C50.170567,125.682419 51.113281,120.283424 57.061008,121.096642   C52.067272,118.489189 47.051247,120.939270 41.075085,121.048309   C45.447098,114.638908 49.374001,109.247772 55.840469,106.334740   C56.935867,105.841278 58.279953,105.774544 56.699768,103.971588   C55.973110,102.930763 55.472713,102.095291 54.740730,101.078690   C51.764252,99.504784 50.054642,97.023041 48.344460,94.659103   C46.458546,92.052254 47.332729,90.425781 50.519436,90.034042   C52.935768,89.736992 55.459629,90.544968 58.156746,89.143112   C58.418976,88.198853 58.313194,87.441833 58.056591,86.327782   C57.514278,85.527786 57.522530,84.940094 57.178909,84.195129   C57.013523,83.970337 56.994263,83.994751 57.009380,83.992920   C56.441471,81.959137 57.134117,80.780334 59.635704,80.831863   C59.895561,85.029091 61.812195,88.389954 63.201935,91.904419   C64.241776,94.534042 65.012878,97.224236 64.987190,100.072708   C64.972305,101.723984 65.112144,103.105392 67.667297,102.864655   C67.853394,103.496498 67.704170,103.970367 67.376366,104.775566   C67.197784,105.106895 67.142769,105.463478 67.546082,105.643707   C70.061752,104.509682 72.111374,105.893661 74.584801,106.060257   C75.294487,107.216675 75.610794,108.281891 75.960983,109.680511   C74.530060,112.113853 72.451309,109.566246 70.907471,110.965698   C70.956062,111.439919 70.955040,111.640938 70.963287,112.143341   C70.168846,113.306259 68.763496,112.668846 67.979805,113.954773  z"/>
<path fill="#7645D9" opacity="1.000000" stroke="none" d=" M58.025314,88.963898   C58.672318,91.574463 56.679558,90.685966 55.385651,90.818115   C52.969734,91.064850 50.422932,90.411446 47.843155,91.988205   C50.015221,94.827049 52.093933,97.543877 54.340897,100.579132   C49.719730,100.180283 47.683094,95.962357 44.807037,92.953346   C43.292160,91.368439 45.274086,90.534523 46.702000,89.929008   C50.217773,88.438148 53.911366,89.200211 58.025314,88.963898  z"/>
<path fill="#7142D1" opacity="1.000000" stroke="none" d=" M59.942272,80.726051   C57.938683,80.457108 57.971977,82.414055 57.095375,83.657730   C54.313232,82.916771 51.601967,81.842445 47.924988,80.385468   C51.750809,78.477074 54.119606,75.341080 58.675747,76.863617   C59.304771,78.127701 59.609383,79.251732 59.942272,80.726051  z"/>
<path fill="#7142D1" opacity="1.000000" stroke="none" d=" M57.038109,84.256592   C57.322269,84.442917 57.631016,84.915504 57.922764,85.679420   C57.624741,85.494789 57.343716,85.018822 57.038109,84.256592  z"/>
<path fill="#623AB5" opacity="1.000000" stroke="none" d=" M72.484802,124.140839   C72.286194,120.337997 69.468857,122.351715 67.859665,122.016914   C66.354790,121.703827 65.303261,120.761444 65.763351,119.474083   C66.104378,118.519867 67.445465,119.249870 68.626297,119.726646   C70.806656,120.420540 74.708336,118.683792 73.362259,123.727348   C73.558914,124.123650 73.130096,124.168922 73.130096,124.168922   C73.130096,124.168922 72.698898,124.167076 72.484802,124.140839  z"/>
<path fill="#7444D7" opacity="1.000000" stroke="none" d=" M81.915085,130.207779   C83.295387,130.044693 84.371208,129.911636 84.931244,131.408356   C84.803505,131.737122 84.604683,131.774139 84.111526,131.884918   C83.332146,131.819931 82.847092,131.681183 82.196472,131.344635   C81.863899,130.905151 81.696907,130.663483 81.915085,130.207779  z"/>
<path fill="#120E27" opacity="1.000000" stroke="none" d=" M43.894852,131.105072   C44.265636,129.823517 44.730568,128.453445 46.094913,129.398804   C46.699665,129.817841 45.677608,130.684097 44.720490,131.274078   C44.383392,131.402222 43.927380,131.333344 43.894852,131.105072  z"/>
<path fill="#130E2B" opacity="1.000000" stroke="none" d=" M82.153290,129.723877   C82.263725,130.187866 82.227180,130.381989 82.110771,130.861481   C81.514206,130.618515 80.997520,130.090195 80.733475,129.265915   C81.326187,129.131317 81.666252,129.292664 82.153290,129.723877  z"/>
<path fill="#120E27" opacity="1.000000" stroke="none" d=" M44.254982,131.269012   C43.968155,131.642044 43.473976,132.085541 43.702553,130.976608   C43.862328,130.876785 44.126568,131.135818 44.254982,131.269012  z"/>
<path fill="#060712" opacity="1.000000" stroke="none" d=" M100.952408,18.733414   C100.295677,19.756027 99.613647,19.081585 98.521332,18.890375   C97.823158,18.585732 97.598976,18.648272 97.511734,19.271103   C104.245956,23.247480 104.948059,30.002907 105.967178,36.514515   C106.078636,37.226707 107.439285,39.769218 104.275322,39.190853   C102.808609,38.922745 103.025208,40.061161 103.614769,41.106541   C107.359390,47.746330 106.386513,54.486382 103.860382,61.632809   C101.696594,65.092110 99.911285,68.379799 97.044456,71.262848   C92.044456,78.973877 85.302048,79.375320 80.186935,72.186462   C77.276680,68.623032 74.470863,65.487633 72.606598,61.317162   C70.548065,59.913872 69.639954,58.104172 69.578110,56.062359   C69.277306,46.131855 70.860847,36.603146 78.693298,29.699120   C82.902466,25.988888 86.741531,22.484259 87.722801,16.319355   C88.123436,13.776640 88.269501,11.553526 88.717293,9.050783   C92.326714,9.254102 94.490128,11.477845 96.746773,14.097323   C98.207924,15.763535 99.535461,17.095444 100.952408,18.733414  z"/>
<path fill="#7443D6" opacity="1.000000" stroke="none" d=" M87.627075,16.038788   C88.891487,21.421692 87.649605,25.110821 82.450310,28.636673   C71.640366,35.967335 68.486954,47.524529 72.282135,60.663994   C67.854385,59.899128 66.210266,57.296543 67.577850,52.574112   C69.605408,45.572727 70.697334,38.251778 73.243523,31.462908   C75.772789,24.719193 80.488525,19.280947 87.627075,16.038788  z"/>
<path fill="#7544D7" opacity="1.000000" stroke="none" d=" M79.970604,72.231087   C88.478600,77.651871 88.580490,77.652168 96.577553,71.720085   C96.732605,76.498863 93.271622,79.807739 90.798195,83.582993   C89.757919,85.170776 88.275955,84.946655 87.088425,83.565346   C84.228859,80.239128 80.748009,77.305618 79.970604,72.231087  z"/>
<path fill="#6F40CF" opacity="1.000000" stroke="none" d=" M96.882988,14.055261   C94.442947,12.682382 92.005501,10.933138 89.293541,8.977524   C91.936058,7.810213 94.655594,9.506861 96.882988,14.055261  z"/>
<path fill="#8766C7" opacity="1.000000" stroke="none" d=" M74.921371,13.928469   C75.523499,14.125755 76.482750,14.017003 76.512856,15.113404   C76.515869,15.223224 76.336052,15.411896 76.213203,15.439398   C75.397148,15.622086 75.193398,15.037513 74.939781,14.142641   C74.864174,13.848833 74.993675,13.992906 74.921371,13.928469  z"/>
<path fill="#8766C7" opacity="1.000000" stroke="none" d=" M78.150711,12.231041   C78.310524,11.890468 78.571892,11.707348 78.901398,11.239876   C79.590088,11.129831 80.513733,11.015438 80.208466,11.939990   C79.933250,12.773531 79.153854,13.056890 78.150711,12.231041  z"/>
<path fill="#8766C7" opacity="1.000000" stroke="none" d=" M72.075729,18.304203   C72.358528,17.908577 72.601776,17.705215 72.892929,17.215549   C73.862984,17.499218 74.037117,18.202299 73.389725,18.937338   C72.830650,19.572094 72.307449,19.461786 72.075729,18.304203  z"/>
<path fill="#060712" opacity="1.000000" stroke="none" d=" M101.899498,20.609934   C101.394997,20.430033 100.929283,19.943348 100.714539,19.206818   C101.676750,19.126055 101.925125,19.629618 101.899498,20.609934  z"/>
<path fill="#1D153A" opacity="1.000000" stroke="none" d=" M108.125046,113.684189   C104.792191,113.132660 101.538315,112.399673 98.129959,111.324280   C101.557106,110.108765 104.751022,111.941360 108.553284,112.521568   C108.714783,112.904465 108.459396,113.203598 108.125046,113.684189  z"/>
<path fill="#060712" opacity="1.000000" stroke="none" d=" M68.067154,103.066223   C68.120171,103.006607 68.153473,102.929977 68.094696,102.937988   C68.002617,103.022636 68.047440,103.049202 68.067154,103.066223  z"/>
<path fill="#6E40CB" opacity="1.000000" stroke="none" d=" M82.140533,174.177414   C80.442200,174.986298 78.331573,175.841583 78.388168,173.289856   C78.431290,171.345718 80.252228,172.291412 81.736633,172.877563   C82.138077,173.285690 82.221924,173.544769 82.140533,174.177414  z"/>
<path fill="#6E40CB" opacity="1.000000" stroke="none" d=" M69.923454,170.500961   C70.939896,170.897598 71.370445,171.544479 71.232292,172.365692   C71.200455,172.554977 70.399269,172.842117 70.104042,172.719223   C69.001396,172.260254 68.906631,171.455307 69.923454,170.500961  z"/>
<path fill="#6E40CB" opacity="1.000000" stroke="none" d=" M74.076111,172.377716   C74.638817,172.656799 74.940285,172.973984 75.241745,173.291168   C74.885307,173.462784 74.472145,173.843201 74.183647,173.764786   C73.470718,173.571060 73.177879,173.073730 74.076111,172.377716  z"/>
<path fill="#070813" opacity="1.000000" stroke="none" d=" M82.309418,174.447556   C81.948952,174.294861 81.922615,174.038757 81.975258,173.404633   C82.621628,173.299881 83.535149,173.418304 82.309418,174.447556  z"/>
<path fill="#110E24" opacity="1.000000" stroke="none" d=" M27.315449,91.948044   C26.179165,91.253838 26.859186,90.655952 27.642168,89.993988   C27.901661,90.595741 27.769735,91.224815 27.315449,91.948044  z"/>
<path fill="#110E24" opacity="1.000000" stroke="none" d=" M28.248207,90.109467   C27.463539,89.396057 27.769453,88.901436 28.260338,88.438568   C28.511393,88.748398 28.762445,89.058235 29.022306,89.697174   C28.857357,90.079491 28.683601,90.132713 28.248207,90.109467  z"/>
<path fill="#6635C8" opacity="1.000000" stroke="none" d=" M112.527802,44.540352   C112.481079,44.566654 112.574516,44.514050 112.527802,44.540352  z"/>
<path fill="#7444D7" opacity="1.000000" stroke="none" d=" M87.121689,132.003052   C87.040199,131.805908 87.033287,131.329788 87.044495,131.091599   C87.380402,131.272171 88.267212,131.629364 87.121689,132.003052  z"/>
<path fill="#6835CC" opacity="1.000000" stroke="none" d=" M122.609703,105.062332   C122.951721,108.531502 122.095863,111.852684 119.329620,114.767113   C119.855232,111.590652 119.967682,108.032646 122.609703,105.062332  z"/>
<path fill="#6835CC" opacity="1.000000" stroke="none" d=" M123.860779,104.009354   C123.904099,104.214638 123.668221,104.497513 123.173630,104.879776   C123.137138,104.681755 123.359367,104.384354 123.860779,104.009354  z"/>
<path fill="#5F30BB" opacity="1.000000" stroke="none" d=" M69.357002,118.146286   C67.771660,117.751770 66.008636,118.159111 65.531853,116.728470   C65.187263,115.694511 66.592270,115.970169 67.609756,115.676155   C69.258125,115.793243 70.561142,115.922409 71.846268,116.151772   C72.993172,116.356461 74.961388,115.664146 74.754379,117.720482   C74.546547,119.785088 72.767708,118.650887 71.633286,118.613602   C70.998718,118.592735 70.373146,118.298500 69.357002,118.146286  z"/>
<path fill="#5830A9" opacity="1.000000" stroke="none" d=" M68.339622,114.259224   C67.090576,113.843582 64.961868,114.289139 65.737991,112.692421   C66.581848,110.956360 68.646904,112.328407 70.573685,112.363953   C72.004776,113.411224 74.000084,112.475739 74.758972,114.563980   C72.637276,115.384178 70.682159,114.443306 68.339622,114.259224  z"/>
<path fill="#603DA7" opacity="1.000000" stroke="none" d=" M71.319092,111.273315   C69.789299,110.624031 67.953011,111.469521 67.218925,109.465073   C70.025955,108.501175 72.591042,109.496277 75.587975,109.987770   C75.593796,113.902161 73.224388,111.227730 71.319092,111.273315  z"/>
<path fill="#0E0C1F" opacity="1.000000" stroke="none" d=" M67.807983,105.595947   C68.009972,106.076218 68.034996,106.331985 68.001541,106.809601   C67.111328,106.764542 65.720482,106.865959 66.977585,105.191223   C67.354042,105.193924 67.510307,105.280945 67.807983,105.595947  z"/>
<path fill="#0E0C1F" opacity="1.000000" stroke="none" d=" M68.014427,106.989426   C68.132767,107.116493 68.237488,107.254738 68.342209,107.392982   C68.260368,107.352142 68.178528,107.311295 68.037643,107.149216   C67.978607,107.027977 68.000809,107.000610 68.014427,106.989426  z"/>
<path fill="#6433C5" opacity="1.000000" stroke="none" d=" M77.783325,57.489929   C77.856728,56.405586 77.740852,55.591446 77.518585,54.807468   C77.155960,53.528442 75.150818,52.592762 76.781685,50.906929   C78.395828,49.238396 79.466522,50.555679 80.505806,51.594017   C82.876694,53.962719 84.812622,49.458073 85.741348,50.660389   C88.156433,53.786926 89.602119,51.580132 91.516144,50.524582   C91.666870,50.441456 92.307854,52.348083 91.759697,52.682549   C85.989395,56.203403 88.731339,61.834499 88.140488,66.630394   C88.007286,67.711533 88.704208,69.137222 87.414757,69.783485   C86.176048,70.404327 85.243759,69.237991 84.341141,68.611969   C81.026863,66.313309 78.267097,63.504292 76.143242,60.007240   C74.850586,57.878811 76.257812,57.994026 77.783325,57.489929  z"/>
<path fill="#8163BB" opacity="1.000000" stroke="none" d=" M89.760277,40.915394   C85.850685,43.697498 87.188774,38.928753 85.367302,38.448135   C84.178009,38.822918 85.623718,41.216370 84.186989,40.964279   C82.899277,40.738327 81.756905,39.397808 80.664932,38.420990   C79.519638,37.396473 79.962173,36.365540 80.944664,35.458447   C81.066299,35.346149 81.180748,35.224255 81.286407,35.096760   C87.294487,27.847250 89.914589,27.993774 95.720459,35.435287   C97.313416,37.477028 96.263077,38.459560 94.911026,39.405201   C93.973038,40.061237 92.374962,42.883106 91.737602,39.061409   C91.632919,38.433670 91.035500,38.403366 90.721649,38.826145   C90.343864,39.335056 90.174690,39.998837 89.760277,40.915394  z"/>
<path fill="#E2E2E3" opacity="1.000000" stroke="none" d=" M80.094704,43.025986   C80.828156,44.040161 81.252213,44.874992 81.676277,45.709820   C80.360245,46.273670 79.124931,46.142921 77.933411,45.337753   C77.028252,44.726097 76.329300,43.784798 76.819717,42.865753   C77.606750,41.390858 78.778427,42.391083 80.094704,43.025986  z"/>
<path fill="#D5D6D7" opacity="1.000000" stroke="none" d=" M96.333435,45.848152   C95.987755,45.496639 95.951927,45.320213 95.997643,45.168320   C96.594368,43.185547 98.036385,42.251297 100.006538,42.155132   C100.823532,42.115257 101.140884,42.923229 100.947632,43.540230   C100.300629,45.605896 98.696335,46.213940 96.333435,45.848152  z"/>
<path fill="#7343D5" opacity="1.000000" stroke="none" d=" M97.705490,19.347198   C97.218735,19.126896 96.877136,18.738930 96.535545,18.350964   C96.966881,18.361866 97.398224,18.372772 97.982605,18.611675   C98.135658,18.839672 97.850655,19.179537 97.705490,19.347198  z"/>
</svg>